<svg width="27" height="27" viewBox="0 0 27 27" fill="none" xmlns="http://www.w3.org/2000/svg">
<g id="104490_apple_icon (1) 1">
<g id="Group">
<path id="Vector" d="M19.8963 14.5337C19.8668 11.5657 22.3166 10.1422 22.4262 10.0703C21.0493 8.05718 18.9043 7.78096 18.1409 7.74953C16.3168 7.56427 14.5799 8.82395 13.6546 8.82395C12.7311 8.82395 11.3014 7.77667 9.78888 7.80334C7.79911 7.83287 5.96508 8.96063 4.94114 10.7418C2.87469 14.3265 4.4125 19.6391 6.42608 22.5485C7.41049 23.9706 8.58445 25.5708 10.1246 25.5122C11.6091 25.4536 12.1692 24.5521 13.9637 24.5521C15.7582 24.5521 16.2621 25.5122 17.8323 25.4822C19.4286 25.4531 20.4407 24.033 21.417 22.6052C22.5471 20.9531 23.0124 19.3533 23.04 19.2724C23.0053 19.2562 19.9282 18.0775 19.8963 14.5337Z" fill="black"/>
<path id="Vector_2" d="M16.9459 5.82405C17.7627 4.8325 18.3161 3.45471 18.1656 2.08311C16.9869 2.13074 15.56 2.86654 14.7138 3.85714C13.9556 4.7363 13.2926 6.136 13.4703 7.48283C14.7852 7.58475 16.1263 6.8137 16.9459 5.82405Z" fill="black"/>
</g>
</g>
</svg>
