<svg width="27" height="27" viewBox="0 0 27 27" fill="none" xmlns="http://www.w3.org/2000/svg">
<g id="1298745_google_brand_branding_logo_network_icon 1" clip-path="url(#clip0_273_130)">
<g id="_x31__stroke">
<g id="Google">
<path id="Vector" fill-rule="evenodd" clip-rule="evenodd" d="M5.81866 13.5C5.81866 12.6231 5.9642 11.7823 6.22429 10.9939L1.67437 7.5195C0.787586 9.31985 0.288086 11.3486 0.288086 13.5C0.288086 15.6497 0.787164 17.677 1.67247 19.4763L6.21986 15.9952C5.96231 15.2103 5.81866 14.3726 5.81866 13.5Z" fill="#FBBC05"/>
<path id="Vector_2" fill-rule="evenodd" clip-rule="evenodd" d="M13.8074 5.52277C15.7123 5.52277 17.4329 6.19777 18.7848 7.30223L22.7176 3.375C20.3211 1.28862 17.2486 0 13.8074 0C8.46473 0 3.87304 3.05522 1.67444 7.5195L6.22415 10.9939C7.27251 7.81165 10.2609 5.52277 13.8074 5.52277Z" fill="#EA4335"/>
<path id="Vector_3" fill-rule="evenodd" clip-rule="evenodd" d="M13.8074 21.4772C10.2611 21.4772 7.27272 19.1884 6.22436 16.0061L1.67444 19.4799C3.87304 23.9448 8.46473 27 13.8074 27C17.1047 27 20.253 25.8291 22.6157 23.6353L18.2969 20.2966C17.0784 21.0642 15.5438 21.4772 13.8074 21.4772Z" fill="#34A853"/>
<path id="Vector_4" fill-rule="evenodd" clip-rule="evenodd" d="M26.7119 13.5C26.7119 12.7022 26.5889 11.8431 26.4046 11.0455H13.8074V16.2614H21.0586C20.696 18.0398 19.7092 19.4069 18.297 20.2966L22.6157 23.6353C25.0976 21.3319 26.7119 17.9004 26.7119 13.5Z" fill="#4285F4"/>
</g>
</g>
</g>
<defs>
<clipPath id="clip0_273_130">
<rect width="27" height="27" fill="white"/>
</clipPath>
</defs>
</svg>
